<?xml version="1.0" standalone="no"?>
<!DOCTYPE svg PUBLIC "-//W3C//DTD SVG 20010904//EN"
 "http://www.w3.org/TR/2001/REC-SVG-20010904/DTD/svg10.dtd">
<svg version="1.0" xmlns="http://www.w3.org/2000/svg"
 width="344.000000pt" height="344.000000pt" viewBox="0 0 344.000000 344.000000"
 preserveAspectRatio="xMidYMid meet">
<metadata>
Created by potrace 1.14, written by Peter Selinger 2001-2017
</metadata>
<g transform="translate(0.000000,344.000000) scale(0.100000,-0.100000)"
fill="#000000" stroke="none">
<path d="M1612 3148 c-501 -37 -949 -339 -1175 -793 -64 -129 -114 -282 -131
-405 -3 -19 -8 -53 -11 -75 -10 -66 -7 -257 5 -346 12 -87 49 -241 71 -294 7
-16 13 -35 14 -41 12 -53 151 -293 215 -369 32 -39 186 -193 225 -225 145
-121 417 -249 608 -286 122 -23 325 -32 442 -19 227 25 466 114 660 246 76 51
250 214 309 289 114 144 220 359 267 540 30 119 42 243 40 412 l-1 57 -47 -20
c-111 -47 -226 -32 -326 44 l-38 29 -57 -29 c-100 -53 -165 -68 -287 -67 -93
1 -122 5 -185 28 -99 35 -169 79 -238 148 -185 186 -231 463 -117 696 l36 72
-32 41 c-68 86 -84 218 -39 324 l19 45 -42 1 c-23 0 -51 1 -62 3 -11 1 -67 -2
-123 -6z"/>
<path d="M2555 3150 c-95 -21 -142 -116 -101 -202 37 -77 136 -102 208 -53 37
25 63 78 60 123 -6 84 -89 149 -167 132z"/>
<path d="M2423 2640 c-57 -23 -74 -115 -30 -165 70 -80 203 -17 183 88 -13 67
-86 104 -153 77z"/>
<path d="M3000 2422 c-44 -22 -62 -56 -56 -106 7 -58 43 -89 101 -89 133 0
145 184 13 208 -13 3 -39 -3 -58 -13z"/>
</g>
</svg>
